<svg width="78" height="28" viewBox="0 0 78 28" fill="none" xmlns="http://www.w3.org/2000/svg">
<path d="M18.6364 9.28125C18.4574 8.65909 18.206 8.10937 17.8821 7.6321C17.5582 7.14631 17.1619 6.73722 16.6932 6.40483C16.233 6.06392 15.7045 5.80398 15.108 5.625C14.5199 5.44602 13.8679 5.35653 13.152 5.35653C11.8139 5.35653 10.6378 5.68892 9.62358 6.35369C8.6179 7.01846 7.83381 7.98579 7.27131 9.25568C6.70881 10.517 6.42756 12.0597 6.42756 13.8835C6.42756 15.7074 6.70455 17.2585 7.25852 18.5369C7.8125 19.8153 8.59659 20.7912 9.6108 21.4645C10.625 22.1293 11.8224 22.4616 13.2031 22.4616C14.456 22.4616 15.5256 22.2401 16.4119 21.7969C17.3068 21.3452 17.9886 20.7102 18.4574 19.892C18.9347 19.0739 19.1733 18.1065 19.1733 16.9901L20.2983 17.1562H13.5483V12.9886H24.5043V16.2869C24.5043 18.5881 24.0185 20.5653 23.0469 22.2188C22.0753 23.8636 20.7372 25.1335 19.0327 26.0284C17.3281 26.9148 15.3764 27.358 13.1776 27.358C10.723 27.358 8.56676 26.8168 6.70881 25.7344C4.85085 24.6435 3.40199 23.0966 2.36222 21.0938C1.33097 19.0824 0.815341 16.696 0.815341 13.9347C0.815341 11.8125 1.12216 9.92045 1.7358 8.25852C2.35795 6.58807 3.22727 5.1733 4.34375 4.0142C5.46023 2.85511 6.75994 1.97301 8.2429 1.3679C9.72585 0.762783 11.3324 0.460226 13.0625 0.460226C14.5455 0.460226 15.9261 0.677556 17.2045 1.11222C18.483 1.53835 19.6165 2.14347 20.6051 2.92756C21.6023 3.71165 22.4162 4.64489 23.0469 5.72727C23.6776 6.80114 24.0824 7.98579 24.2614 9.28125H18.6364ZM32.3665 27H26.4347L35.473 0.818181H42.6065L51.6321 27H45.7003L39.142 6.80114H38.9375L32.3665 27ZM31.9957 16.7088H46.0071V21.0298H31.9957V16.7088ZM54.7834 27V0.818181H60.3189V11.6207H71.5561V0.818181H77.0788V27H71.5561V16.1847H60.3189V27H54.7834Z" fill="black"/>
</svg>
